<?xml version="1.0" encoding="utf-8"?>
<!-- Generator: Adobe Illustrator 16.0.1, SVG Export Plug-In . SVG Version: 6.00 Build 0)  -->
<!DOCTYPE svg PUBLIC "-//W3C//DTD SVG 1.1//EN" "http://www.w3.org/Graphics/SVG/1.1/DTD/svg11.dtd">
<svg version="1.1" id="Layer_1" xmlns="http://www.w3.org/2000/svg" xmlns:xlink="http://www.w3.org/1999/xlink" x="0px" y="0px"
	 width="545px" height="197px" viewBox="36.5 170.5 545 197" enable-background="new 36.5 170.5 545 197" xml:space="preserve">
<g>
	<rect x="44.305" y="175.739" fill="none" width="532.608" height="340.218"/>
	<path d="M187.285,316.873c4.782,11.753,9.016,19.596,12.705,23.526c3.688,3.933,8.247,5.897,13.678,5.897v4.985h-66.019v-4.985
		c7.213-0.405,12.037-1.216,14.468-2.432c2.431-1.216,3.647-3.241,3.647-6.079c0-5.836-10.942-34.448-32.827-85.837l-10.942-25.897
		L82.36,320.642c-1.379,3.243-2.474,6.201-3.283,8.875c-0.811,2.675-1.216,4.702-1.216,6.079c0,3.729,1.174,6.343,3.526,7.842
		c2.35,1.5,7.092,2.452,14.225,2.857v4.985H47.831v-4.985c4.213-0.162,7.72-1.721,10.517-4.681c2.796-2.958,6.341-9.624,10.638-20
		l57.508-138.36h5.958L187.285,316.873z"/>
	<path d="M303.761,183.984h6.688l63.83,143.832c3.162,7.215,6.301,12.139,9.422,14.772c3.119,2.635,7.192,3.952,12.221,3.952h1.459
		v4.742h-68.209v-4.985c6.971-0.162,11.691-0.992,14.164-2.493c2.473-1.499,3.709-4.152,3.709-7.963
		c0-1.459-0.121-2.836-0.365-4.134c-0.241-1.295-0.606-2.472-1.094-3.526l-13.373-31.125h-68.087l-11.429,26.383
		c-1.459,3.486-2.493,6.201-3.1,8.146c-0.608,1.945-0.912,3.526-0.912,4.742c0,3.404,1.337,5.917,4.012,7.538
		c2.675,1.623,6.849,2.432,12.523,2.432h2.432v4.985h-53.739v-4.742c5.35-0.08,9.706-1.6,13.07-4.559
		c3.362-2.958,6.949-8.572,10.76-16.839L303.761,183.984z M267.651,287.815h61.034l-29.421-68.208L267.651,287.815z"/>
	<path d="M399.689,351.281v-4.985c9.481-0.648,15.701-2.188,18.661-4.62c2.958-2.432,4.438-8.347,4.438-17.751V208.543
		c-3.242-5.672-6.586-9.746-10.03-12.219c-3.446-2.472-7.802-3.952-13.068-4.438v-4.985H442l94.59,115.868v-88.39
		c0-9.077-1.419-14.894-4.255-17.447c-2.838-2.553-9.118-4.234-18.845-5.045v-4.985h58.479v4.985
		c-9.646,0.812-15.908,2.413-18.784,4.802c-2.878,2.392-4.315,8.289-4.315,17.69V351.28h-5.714L435.312,219.607v104.317
		c0,9.322,1.459,15.219,4.377,17.69c2.918,2.474,9.157,4.033,18.724,4.681v4.985h-58.724V351.281z"/>
</g>
<style type="text/css" media="screen">
	<![CDATA[
	path {
		fill: #050A47;
	}
	]]>
</style>

</svg>
